<svg width="32" height="32" viewBox="0 0 32 32" fill="none" xmlns="http://www.w3.org/2000/svg">
<rect width="32" height="32" rx="2" fill="#2B2C2F"/>
<path d="M17.3262 11.037L12.8007 15.699C12.7187 15.781 12.6777 15.879 12.6777 15.993C12.6777 16.1071 12.7187 16.2096 12.8007 16.3006L17.3262 20.9626C17.4081 21.0355 17.5038 21.072 17.6132 21.072C17.7225 21.072 17.8182 21.031 17.9002 20.949C17.9821 20.8671 18.0231 20.7714 18.0231 20.662C18.0231 20.5527 17.9821 20.457 17.9002 20.375L13.6345 16L17.9002 11.625C17.9821 11.5431 18.0231 11.4474 18.0231 11.338C18.0231 11.2287 17.9821 11.133 17.9002 11.051C17.8182 10.9691 17.7225 10.9281 17.6132 10.9281C17.5038 10.9281 17.4081 10.9646 17.3262 11.0375V11.037Z" fill="#606266"/>
</svg>
