<svg width="32" height="32" viewBox="0 0 32 32" fill="none" xmlns="http://www.w3.org/2000/svg">
<rect width="32" height="32" rx="2" fill="#2B2C2F"/>
<path d="M11.4062 14.6875C11.8438 14.6965 12.206 14.8447 12.493 15.132C12.78 15.4193 12.9282 15.7815 12.9375 16.2188C12.9285 16.6562 12.7803 17.0185 12.493 17.3055C12.2057 17.5925 11.8435 17.7407 11.4062 17.75C10.9688 17.741 10.6065 17.5928 10.3195 17.3055C10.0325 17.0182 9.88433 16.656 9.875 16.2188C9.88404 15.7812 10.0322 15.419 10.3195 15.132C10.6068 14.845 10.969 14.6968 11.4062 14.6875ZM16 14.6875C16.4375 14.6965 16.7997 14.8447 17.0867 15.132C17.3737 15.4193 17.5219 15.7815 17.5312 16.2188C17.5222 16.6562 17.374 17.0185 17.0867 17.3055C16.7995 17.5925 16.4372 17.7407 16 17.75C15.5625 17.741 15.2003 17.5928 14.9132 17.3055C14.6262 17.0182 14.4781 16.656 14.4688 16.2188C14.4778 15.7812 14.626 15.419 14.9132 15.132C15.2005 14.845 15.5628 14.6968 16 14.6875ZM20.5938 14.6875C21.0312 14.6965 21.3935 14.8447 21.6805 15.132C21.9675 15.4193 22.1157 15.7815 22.125 16.2188C22.116 16.6562 21.9678 17.0185 21.6805 17.3055C21.3932 17.5925 21.031 17.7407 20.5938 17.75C20.1562 17.741 19.794 17.5928 19.507 17.3055C19.22 17.0182 19.0718 16.656 19.0625 16.2188C19.0715 15.7812 19.2197 15.419 19.507 15.132C19.7943 14.845 20.1565 14.6968 20.5938 14.6875Z" fill="#606266"/>
</svg>
