<svg width="32" height="32" viewBox="0 0 32 32" fill="none" xmlns="http://www.w3.org/2000/svg">
<rect width="32" height="32" rx="2" fill="#2B2C2F"/>
<path d="M12.5173 15.878C12.5173 15.0007 12.8533 14.1 13.5253 13.176L16.2273 9.452H17.5153L15.1633 12.63C15.4153 12.518 15.7747 12.462 16.2413 12.462C17.1653 12.462 17.9353 12.7933 18.5513 13.456C19.1673 14.1187 19.4753 14.926 19.4753 15.878C19.4753 16.83 19.1393 17.642 18.4673 18.314C17.7953 18.9767 16.9693 19.308 15.9893 19.308C15 19.308 14.174 18.986 13.5113 18.342C12.8487 17.6887 12.5173 16.8673 12.5173 15.878ZM13.7213 15.892C13.7213 16.5733 13.936 17.1427 14.3653 17.6C14.7947 18.048 15.336 18.272 15.9893 18.272C16.6427 18.272 17.184 18.048 17.6133 17.6C18.052 17.1427 18.2713 16.5733 18.2713 15.892C18.2713 15.2107 18.0613 14.6413 17.6413 14.184C17.2213 13.7173 16.6707 13.484 15.9893 13.484C15.3173 13.484 14.7713 13.708 14.3513 14.156C13.9313 14.604 13.7213 15.1827 13.7213 15.892Z" fill="#606266"/>
</svg>
