<svg width="48" height="32" viewBox="0 0 48 32" fill="none" xmlns="http://www.w3.org/2000/svg">
<rect width="48" height="32" rx="2" fill="#2B2C2F"/>
<path d="M15.596 19V10.516H14.308V9.452H16.744V19H15.596ZM20.5733 14.17C20.5733 13.2927 20.6713 12.518 20.8673 11.846C21.0727 11.174 21.3433 10.6513 21.6793 10.278C22.0247 9.89533 22.3933 9.61067 22.7853 9.424C23.1773 9.23733 23.5927 9.144 24.0313 9.144C24.4607 9.144 24.862 9.228 25.2353 9.396C25.618 9.564 25.9773 9.83 26.3133 10.194C26.6587 10.558 26.9293 11.076 27.1253 11.748C27.3307 12.42 27.4333 13.2087 27.4333 14.114C27.4333 14.926 27.354 15.6493 27.1953 16.284C27.046 16.9093 26.8547 17.4087 26.6213 17.782C26.388 18.146 26.1127 18.4493 25.7953 18.692C25.478 18.9347 25.1747 19.098 24.8853 19.182C24.6053 19.266 24.316 19.308 24.0173 19.308C23.588 19.308 23.182 19.224 22.7993 19.056C22.4167 18.888 22.0527 18.622 21.7073 18.258C21.362 17.8847 21.0867 17.348 20.8813 16.648C20.676 15.948 20.5733 15.122 20.5733 14.17ZM26.2433 14.17C26.2433 12.8447 26.0473 11.8507 25.6553 11.188C25.2727 10.516 24.722 10.18 24.0033 10.18C23.35 10.18 22.8133 10.502 22.3933 11.146C21.9827 11.7807 21.7773 12.7747 21.7773 14.128C21.7773 16.8907 22.5333 18.272 24.0453 18.272C24.68 18.272 25.2027 17.9407 25.6133 17.278C26.0333 16.6153 26.2433 15.5793 26.2433 14.17ZM28.4347 14.17C28.4347 13.2927 28.5327 12.518 28.7287 11.846C28.934 11.174 29.2047 10.6513 29.5407 10.278C29.886 9.89533 30.2547 9.61067 30.6467 9.424C31.0387 9.23733 31.454 9.144 31.8927 9.144C32.322 9.144 32.7233 9.228 33.0967 9.396C33.4793 9.564 33.8387 9.83 34.1747 10.194C34.52 10.558 34.7907 11.076 34.9867 11.748C35.192 12.42 35.2947 13.2087 35.2947 14.114C35.2947 14.926 35.2153 15.6493 35.0567 16.284C34.9073 16.9093 34.716 17.4087 34.4827 17.782C34.2493 18.146 33.974 18.4493 33.6567 18.692C33.3393 18.9347 33.036 19.098 32.7467 19.182C32.4667 19.266 32.1773 19.308 31.8787 19.308C31.4493 19.308 31.0433 19.224 30.6607 19.056C30.278 18.888 29.914 18.622 29.5687 18.258C29.2233 17.8847 28.948 17.348 28.7427 16.648C28.5373 15.948 28.4347 15.122 28.4347 14.17ZM34.1047 14.17C34.1047 12.8447 33.9087 11.8507 33.5167 11.188C33.134 10.516 32.5833 10.18 31.8647 10.18C31.2113 10.18 30.6747 10.502 30.2547 11.146C29.844 11.7807 29.6387 12.7747 29.6387 14.128C29.6387 16.8907 30.3947 18.272 31.9067 18.272C32.5413 18.272 33.064 17.9407 33.4747 17.278C33.8947 16.6153 34.1047 15.5793 34.1047 14.17Z" fill="#606266"/>
</svg>
