<svg width="32" height="32" viewBox="0 0 32 32" fill="none" xmlns="http://www.w3.org/2000/svg">
<rect width="32" height="32" rx="2" fill="#2B2C2F"/>
<path d="M14.3653 11.762C14.3653 12.238 14.524 12.6347 14.8413 12.952C15.168 13.26 15.5507 13.414 15.9893 13.414C16.484 13.414 16.8807 13.2647 17.1793 12.966C17.4873 12.658 17.6413 12.2567 17.6413 11.762C17.6413 11.2953 17.4873 10.922 17.1793 10.642C16.8807 10.3527 16.4887 10.208 16.0033 10.208C15.546 10.208 15.1587 10.3527 14.8413 10.642C14.524 10.922 14.3653 11.2953 14.3653 11.762ZM14.0573 16.368C14.0573 16.9187 14.2393 17.3713 14.6033 17.726C14.9673 18.0807 15.4387 18.258 16.0173 18.258C16.596 18.258 17.0627 18.0947 17.4173 17.768C17.772 17.4413 17.9493 16.9747 17.9493 16.368C17.9493 15.7987 17.7673 15.3367 17.4033 14.982C17.0487 14.6273 16.5913 14.45 16.0313 14.45C15.4527 14.45 14.9767 14.632 14.6033 14.996C14.2393 15.3507 14.0573 15.808 14.0573 16.368ZM19.1393 16.382C19.1393 17.2127 18.8687 17.908 18.3273 18.468C17.7953 19.0187 17.0253 19.294 16.0173 19.294C15.0093 19.294 14.23 19.0187 13.6793 18.468C13.138 17.9173 12.8673 17.2453 12.8673 16.452C12.8673 15.2107 13.4507 14.3613 14.6173 13.904V13.876C13.6467 13.4747 13.1613 12.7467 13.1613 11.692C13.1613 10.9827 13.4273 10.3807 13.9593 9.886C14.4913 9.39133 15.1773 9.144 16.0173 9.144C16.848 9.144 17.5247 9.39133 18.0473 9.886C18.5793 10.3807 18.8453 10.9827 18.8453 11.692C18.8453 12.224 18.7147 12.686 18.4533 13.078C18.192 13.4607 17.8513 13.7267 17.4313 13.876V13.904C18.57 14.3147 19.1393 15.1407 19.1393 16.382Z" fill="#606266"/>
</svg>
