<svg width="32" height="32" viewBox="0 0 32 32" fill="none" xmlns="http://www.w3.org/2000/svg">
<rect width="32" height="32" rx="2" fill="#2B2C2F"/>
<path d="M13.662 11.0369C13.58 11.1282 13.5391 11.2286 13.5391 11.3379C13.5391 11.4473 13.58 11.543 13.662 11.6249L17.9276 15.9999L13.662 20.3749C13.58 20.4569 13.5391 20.5526 13.5391 20.6619C13.5391 20.7713 13.58 20.867 13.662 20.9489C13.744 21.0309 13.8396 21.0719 13.949 21.0719C14.0584 21.0719 14.154 21.0354 14.236 20.9625L18.7615 16.3005C18.8435 16.2185 18.8844 16.1182 18.8844 15.9995C18.8844 15.8808 18.8435 15.7805 18.7615 15.6985L14.236 11.0365C14.154 10.9636 14.0584 10.9271 13.949 10.9271C13.8396 10.9271 13.744 10.9636 13.662 11.0365V11.0369Z" fill="#606266"/>
</svg>
