<svg width="32" height="32" viewBox="0 0 32 32" fill="none" xmlns="http://www.w3.org/2000/svg">
<rect width="32" height="32" rx="2" fill="#2B2C2F"/>
<path d="M14.8693 10.516L14.6033 13.05C14.9767 12.9473 15.3967 12.896 15.8633 12.896C16.8807 12.896 17.6973 13.1713 18.3133 13.722C18.9387 14.2633 19.2513 15.0147 19.2513 15.976C19.2513 16.368 19.1813 16.76 19.0413 17.152C18.9013 17.5347 18.7007 17.8893 18.4393 18.216C18.178 18.5427 17.8327 18.804 17.4033 19C16.974 19.2053 16.498 19.308 15.9753 19.308C15.0513 19.308 14.3047 19.056 13.7353 18.552C13.166 18.048 12.844 17.4227 12.7693 16.676H14.0013C14.076 17.1333 14.2813 17.5113 14.6173 17.81C14.9627 18.1087 15.4293 18.258 16.0173 18.258C16.5867 18.258 17.0673 18.062 17.4593 17.67C17.8513 17.278 18.0473 16.7693 18.0473 16.144C18.0473 15.4347 17.842 14.8933 17.4313 14.52C17.03 14.1467 16.4467 13.96 15.6813 13.96C15 13.96 14.23 14.086 13.3713 14.338L13.8333 9.452H18.5933V10.516H14.8693Z" fill="#606266"/>
</svg>
