<svg width="20" height="20" viewBox="0 0 20 20" fill="none" xmlns="http://www.w3.org/2000/svg">
<path d="M15.3319 4.49256V3.51569C15.3319 3.33319 15.3904 3.18339 15.5075 3.06631C15.6246 2.94923 15.7711 2.89069 15.9469 2.89069C16.1227 2.89069 16.2692 2.94923 16.3863 3.06631C16.5034 3.18339 16.5686 3.33319 16.5819 3.51569V6.42569C16.569 6.59485 16.5038 6.73819 16.3863 6.85569C16.2688 6.97319 16.1254 7.03839 15.9563 7.05131H13.0463C12.8638 7.03839 12.714 6.97319 12.5969 6.85569C12.4798 6.73819 12.4213 6.59173 12.4213 6.41631C12.4213 6.24089 12.4798 6.09444 12.5969 5.97694C12.714 5.85944 12.8638 5.80089 13.0463 5.80131H14.8625C13.8467 4.73339 12.6521 4.08569 11.2788 3.85819C9.90544 3.63069 8.57398 3.85527 7.28439 4.53194C6.00814 5.23527 5.09023 6.22485 4.53064 7.50069C3.97106 8.77652 3.86044 10.1307 4.19877 11.5632C4.57627 12.9694 5.31523 14.099 6.41565 14.9519C7.51606 15.8049 8.79544 16.2442 10.2538 16.2701C12.0246 16.2309 13.4961 15.6221 14.6681 14.4438C15.8402 13.2655 16.4523 11.7909 16.5044 10.0201H17.7544C17.7023 12.1426 16.9698 13.9101 15.5569 15.3226C14.144 16.7351 12.3765 17.4676 10.2544 17.5201C8.1319 17.468 6.36439 16.7355 4.95189 15.3226C3.53939 13.9096 2.80689 12.1421 2.75439 10.0201C2.76731 8.50964 3.17106 7.14235 3.96564 5.91819C4.76023 4.69402 5.84752 3.7761 7.22752 3.16444C8.62085 2.56527 10.0369 2.38631 11.4756 2.62756C12.9144 2.86881 14.2002 3.49048 15.3331 4.49256H15.3319Z" fill="#606266"/>
</svg>
